HIERARCHY
ROOT Hips
{
	OFFSET -0.001795 -0.223333 0.028219
	CHANNELS 6 Xposition Yposition Zposition Zrotation Yrotation Xrotation 
	JOINT LeftUpLeg
	{
		OFFSET 0.069520 -0.091406 -0.006815
		CHANNELS 3 Zrotation Yrotation Xrotation
		JOINT LeftLeg
		{
			OFFSET 0.034277 -0.375199 -0.004496
			CHANNELS 3 Zrotation Yrotation Xrotation
			JOINT LeftFoot
			{
				OFFSET -0.013596 -0.397961 -0.043693
				CHANNELS 3 Zrotation Yrotation Xrotation
				JOINT LeftToe
				{
					OFFSET 0.026358 -0.055791 0.119288
					CHANNELS 3 Zrotation Yrotation Xrotation
					End Site
					{
						OFFSET 0.000000 0.000000 0.000000
					}
				}
			}
		}
	}
	JOINT RightUpLeg
	{
		OFFSET -0.067670 -0.090522 -0.004320
		CHANNELS 3 Zrotation Yrotation Xrotation
		JOINT RightLeg
		{
			OFFSET -0.038290 -0.382569 -0.008850
			CHANNELS 3 Zrotation Yrotation Xrotation
			JOINT RightFoot
			{
				OFFSET 0.015774 -0.398415 -0.042312
				CHANNELS 3 Zrotation Yrotation Xrotation
				JOINT RightToe
				{
					OFFSET -0.025372 -0.048144 0.123348
					CHANNELS 3 Zrotation Yrotation Xrotation
					End Site
					{
						OFFSET 0.000000 0.000000 0.000000
					}
				}
			}
		}
	}
	JOINT Spine
	{
		OFFSET -0.002533 0.108963 -0.026696
		CHANNELS 3 Zrotation Yrotation Xrotation
		JOINT Spine1
		{
			OFFSET 0.005487 0.135180 0.001092
			CHANNELS 3 Zrotation Yrotation Xrotation
			JOINT Spine2
			{
				OFFSET 0.001457 0.052922 0.025425
				CHANNELS 3 Zrotation Yrotation Xrotation
				JOINT Neck
				{
					OFFSET -0.002778 0.213870 -0.042857
					CHANNELS 3 Zrotation Yrotation Xrotation
					JOINT Head
					{
						OFFSET 0.005152 0.064970 0.051349
						CHANNELS 3 Zrotation Yrotation Xrotation
						End Site
						{
							OFFSET 0.000000 0.000000 0.000000
						}
					}
				}
				JOINT LeftShoulder
				{
					OFFSET 0.078845 0.121749 -0.034090
					CHANNELS 3 Zrotation Yrotation Xrotation
					JOINT LeftArm
					{
						OFFSET 0.090977 0.030469 -0.008868
						CHANNELS 3 Zrotation Yrotation Xrotation
						JOINT LeftForeArm
						{
							OFFSET 0.259612 -0.012772 -0.027456
							CHANNELS 3 Zrotation Yrotation Xrotation
							JOINT LeftHand
							{
								OFFSET 0.249234 0.008986 -0.001171
								CHANNELS 3 Zrotation Yrotation Xrotation
								End Site
								{
									OFFSET 0.000000 0.000000 0.000000
								}
							}
						}
					}
				}
				JOINT RightShoulder
				{
					OFFSET -0.081759 0.118833 -0.038615
					CHANNELS 3 Zrotation Yrotation Xrotation
					JOINT RightArm
					{
						OFFSET -0.096012 0.032551 -0.009143
						CHANNELS 3 Zrotation Yrotation Xrotation
						JOINT RightForeArm
						{
							OFFSET -0.253742 -0.013329 -0.021401
							CHANNELS 3 Zrotation Yrotation Xrotation
							JOINT RightHand
							{
								OFFSET -0.255298 0.007772 -0.005559
								CHANNELS 3 Zrotation Yrotation Xrotation
								End Site
								{
									OFFSET 0.000000 0.000000 0.000000
								}
							}
						}
					}
				}
			}
		}
	}
}
MOTION
Frames: 7
Frame Time: 0.050000
0.000000 0.957872 0.000000 -0.704563 4.978511 -1.621732 5.779424 0.116452 7.135312 -2.609014 0.321490 -7.397262 1.974402 9.119210 14.787320 0.000000 0.000000 0.000000 -3.570333 -0.506539 6.997362 0.688155 -0.269372 -5.468161 -3.191934 -10.961180 15.083109 0.000000 0.000000 0.000000 -1.585195 -0.089327 3.372013 4.119670 -0.329995 -23.834681 -1.937330 -2.085294 30.908040 -0.639017 1.408989 -13.029863 0.000000 0.000000 0.000000 2.179198 9.876536 -3.252175 -6.774576 -18.285376 -1.300423 10.935360 1.247954 0.124879 0.000000 0.000000 0.000000 -12.952411 -5.113427 -1.129238 11.294388 10.118035 -1.298815 -12.674610 0.036968 0.319022 0.000000 0.000000 0.000000 
0.000024 0.956566 0.000238 -0.875539 4.813168 -1.841767 5.817936 0.124138 7.284854 -2.602014 0.319893 -6.762367 2.285495 9.437891 14.276143 0.000000 0.000000 0.000000 -3.553369 -0.562927 7.688742 0.685008 -0.291389 -6.066941 -2.968894 -10.461698 14.241916 0.000000 0.000000 0.000000 -1.524155 -0.073824 2.737731 4.362147 -0.447671 -22.882143 -1.501841 -2.182283 31.386966 -1.310385 1.870311 -12.365749 0.000000 0.000000 0.000000 2.513839 8.833591 -2.862121 -6.132652 -17.190035 -1.279162 8.347618 2.948267 0.154994 0.000000 0.000000 0.000000 -13.290948 -6.345205 -1.404429 12.252069 11.652449 -1.314181 -14.404217 0.068491 0.362284 0.000000 0.000000 0.000000 
0.000029 0.957015 0.000411 -0.664930 5.435177 -0.822671 6.161972 0.017977 5.455210 -3.816934 0.365066 -5.216089 1.934298 8.676651 13.204384 0.000000 0.000000 0.000000 -3.715055 -0.495015 6.963022 1.197007 -0.303624 -5.390311 -2.918862 -10.248672 14.029592 0.000000 0.000000 0.000000 -1.671237 -0.028315 1.359461 3.538030 -0.232204 -22.578748 -1.649522 -3.247516 31.330948 -1.066241 1.646811 -14.235576 0.000000 0.000000 0.000000 1.675493 8.554285 -2.883526 -5.831979 -16.574523 -1.271211 9.267329 4.290030 0.249725 0.000000 0.000000 0.000000 -12.220873 -6.431557 -1.415472 11.401592 10.797743 -1.329704 -13.172143 -0.178020 0.327011 0.000000 0.000000 0.000000 
0.000086 0.956763 0.000399 -0.797245 5.573263 -1.273147 6.593030 0.006402 6.253887 -4.785015 0.406756 -5.553570 2.179692 9.020359 13.054295 0.000000 0.000000 0.000000 -4.126666 -0.548564 7.918904 1.830627 -0.372918 -6.211288 -3.058575 -10.600659 14.663223 0.000000 0.000000 0.000000 -1.787412 -0.041276 1.833794 3.973370 -0.345555 -22.588990 -1.524110 -3.509889 31.556663 -1.790858 2.150874 -13.858200 0.000000 0.000000 0.000000 0.440815 9.947794 -3.534910 -5.343229 -18.498595 -1.332920 9.012871 5.584396 0.295878 0.000000 0.000000 0.000000 -12.172452 -7.151849 -1.581918 11.832741 11.470867 -1.333783 -13.222090 -0.285809 0.336401 0.000000 0.000000 0.000000 
0.000122 0.956215 0.000376 -0.909880 5.593193 -0.894136 6.664596 -0.014151 5.875381 -5.065356 0.422574 -5.266781 2.311584 9.117052 12.663997 0.000000 0.000000 0.000000 -3.968157 -0.533831 7.619562 1.903539 -0.388377 -6.591854 -3.074075 -10.617672 14.651862 0.000000 0.000000 0.000000 -1.547937 -0.013565 0.724729 3.738877 -0.325524 -21.734904 -1.645865 -3.116759 31.703600 -0.907859 1.552833 -14.079048 0.000000 0.000000 0.000000 0.871759 9.792383 -3.417158 -6.439509 -17.991242 -1.320963 9.446089 6.459891 0.354445 0.000000 0.000000 0.000000 -11.357242 -7.305914 -1.733711 12.359063 10.879457 -1.385118 -12.818575 -0.821870 0.383278 0.000000 0.000000 0.000000 
0.000124 0.955941 0.000394 -0.948823 5.751590 -1.397760 6.846446 -0.018482 6.190730 -5.372414 0.437658 -5.158023 2.181194 8.982545 12.846626 0.000000 0.000000 0.000000 -4.351274 -0.614845 8.918849 2.134837 -0.419319 -7.164117 -3.019748 -10.585492 15.094260 0.000000 0.000000 0.000000 -1.669441 -0.032469 1.391642 3.819732 -0.353686 -21.592925 -1.571036 -3.154166 31.664958 -0.859355 1.503860 -13.718666 0.000000 0.000000 0.000000 0.111610 10.447086 -3.752956 -6.721842 -18.032335 -1.325145 9.737787 5.823270 0.340667 0.000000 0.000000 0.000000 -11.040597 -7.497995 -1.810750 13.011361 11.019658 -1.412803 -13.338068 -1.046151 0.422792 0.000000 0.000000 0.000000 
0.000138 0.955412 0.000235 -0.988325 6.008447 -1.282861 6.925313 -0.041087 5.800428 -5.654580 0.455536 -4.697298 2.033499 8.704106 12.578516 0.000000 0.000000 0.000000 -4.407039 -0.589559 8.584439 2.099971 -0.409295 -6.807070 -3.058027 -10.626263 15.175069 0.000000 0.000000 0.000000 -1.705280 -0.033155 1.456516 3.843897 -0.351562 -21.665535 -1.551489 -3.201739 31.518748 -0.690806 1.386094 -13.601131 0.000000 0.000000 0.000000 0.218885 10.567771 -3.777047 -7.632900 -17.728643 -1.315948 9.442826 4.816163 0.279844 0.000000 0.000000 0.000000 -10.715416 -7.539109 -1.853546 13.782381 10.321449 -1.479723 -12.969417 -0.089617 0.335906 0.000000 0.000000 0.000000 
